<svg viewBox="0 0 1440 720" xmlns="http://www.w3.org/2000/svg" preserveAspectRatio="xMidYMid slice">
  <defs>
    <linearGradient id="k11-blob" x1="0.15" y1="0" x2="0.85" y2="1">
      <stop offset="0" stop-color="#2E5B9E"/>
      <stop offset="0.45" stop-color="#16355C"/>
      <stop offset="1" stop-color="#081A33"/>
    </linearGradient>
    <radialGradient id="k11-coralglow" cx="0.5" cy="0.5" r="0.5">
      <stop offset="0" stop-color="#FF6F61" stop-opacity="0.6"/>
      <stop offset="0.5" stop-color="#FF6F61" stop-opacity="0.25"/>
      <stop offset="1" stop-color="#FF6F61" stop-opacity="0"/>
    </radialGradient>
    <radialGradient id="k11-soft" cx="0.5" cy="0.5" r="0.5">
      <stop offset="0" stop-color="#AEC4E3" stop-opacity="0.4"/>
      <stop offset="1" stop-color="#AEC4E3" stop-opacity="0"/>
    </radialGradient>
    <filter id="k11-grain">
      <feTurbulence type="fractalNoise" baseFrequency="0.55" numOctaves="3" stitchTiles="stitch"/>
      <feColorMatrix type="saturate" values="0"/>
    </filter>
    <clipPath id="k11-clip">
      <path d="M 430 60
               C 610 -10, 900 10, 1020 130
               C 1120 230, 1040 330, 1130 400
               C 1230 475, 1300 560, 1210 650
               C 1100 760, 880 720, 700 690
               C 560 668, 420 730, 330 640
               C 240 550, 330 460, 400 390
               C 470 320, 300 280, 280 190
               C 262 105, 330 100, 430 60 Z"/>
    </clipPath>
  </defs>
  <rect width="1440" height="720" fill="#FCF9F5"/>
  <ellipse cx="180" cy="620" rx="480" ry="320" fill="url(#k11-soft)"/>
  <g clip-path="url(#k11-clip)">
    <rect width="1440" height="720" fill="url(#k11-blob)"/>
    <ellipse cx="1120" cy="620" rx="580" ry="400" fill="url(#k11-coralglow)"/>
    <ellipse cx="420" cy="140" rx="440" ry="320" fill="#4A78B8" opacity="0.35"/>
    <rect width="1440" height="720" filter="url(#k11-grain)" opacity="0.26" style="mix-blend-mode:soft-light"/>
    <rect width="1440" height="720" filter="url(#k11-grain)" opacity="0.10" style="mix-blend-mode:overlay"/>
  </g>
  <rect width="1440" height="720" filter="url(#k11-grain)" opacity="0.03" style="mix-blend-mode:multiply"/>
</svg>
