<svg viewBox="0 0 1440 720" xmlns="http://www.w3.org/2000/svg" preserveAspectRatio="xMidYMid slice">
  <defs>
    <linearGradient id="v-base" x1="0" y1="0" x2="0" y2="1">
      <stop offset="0" stop-color="#FAF8F5"/><stop offset="0.7" stop-color="#F6F1EB"/><stop offset="1" stop-color="#F3EBE2"/>
    </linearGradient>
    <radialGradient id="v-cl" cx="0.3" cy="1" r="0.75">
      <stop offset="0" stop-color="#FF8A66" stop-opacity="0.5"/><stop offset="0.45" stop-color="#FFA98A" stop-opacity="0.22"/><stop offset="0.75" stop-color="#FFA98A" stop-opacity="0"/>
    </radialGradient>
    <radialGradient id="v-cr" cx="0.7" cy="1" r="0.75">
      <stop offset="0" stop-color="#FF8A66" stop-opacity="0.45"/><stop offset="0.45" stop-color="#FFA98A" stop-opacity="0.2"/><stop offset="0.75" stop-color="#FFA98A" stop-opacity="0"/>
    </radialGradient>
    <radialGradient id="v-cc" cx="0.5" cy="1" r="0.7">
      <stop offset="0" stop-color="#FFB199" stop-opacity="0.28"/><stop offset="1" stop-color="#FFB199" stop-opacity="0"/>
    </radialGradient>
    <radialGradient id="v-navy" cx="0.75" cy="0" r="0.6">
      <stop offset="0" stop-color="#14304F" stop-opacity="0.07"/><stop offset="1" stop-color="#14304F" stop-opacity="0"/>
    </radialGradient>
    <filter id="v-grain">
      <feTurbulence type="fractalNoise" baseFrequency="0.9" numOctaves="2" stitchTiles="stitch"/>
      <feColorMatrix type="saturate" values="0"/>
    </filter>
  </defs>
  <rect width="1440" height="720" fill="url(#v-base)"/>
  <rect width="1440" height="720" fill="url(#v-navy)"/>
  <ellipse cx="180" cy="820" rx="640" ry="440" fill="url(#v-cl)"/>
  <ellipse cx="1260" cy="820" rx="640" ry="440" fill="url(#v-cr)"/>
  <ellipse cx="720" cy="880" rx="800" ry="400" fill="url(#v-cc)"/>
  <line x1="0" y1="648.0" x2="1440" y2="648.0" stroke="#14304F" stroke-opacity="0.08"/>
    <rect x="0" y="637.2" width="5" height="21.7" rx="2.5" fill="rgb(90,115,150)" fill-opacity="0.18"/>
  <rect x="9" y="633.2" width="5" height="29.6" rx="2.5" fill="rgb(91,115,150)" fill-opacity="0.184"/>
  <rect x="18" y="634.5" width="5" height="27.0" rx="2.5" fill="rgb(93,115,149)" fill-opacity="0.188"/>
  <rect x="27" y="641.1" width="5" height="13.8" rx="2.5" fill="rgb(94,115,149)" fill-opacity="0.192"/>
  <rect x="36" y="644.2" width="5" height="7.6" rx="2.5" fill="rgb(96,115,148)" fill-opacity="0.196"/>
  <rect x="45" y="639.0" width="5" height="18.1" rx="2.5" fill="rgb(97,115,148)" fill-opacity="0.2"/>
  <rect x="54" y="638.7" width="5" height="18.6" rx="2.5" fill="rgb(99,115,147)" fill-opacity="0.204"/>
  <rect x="63" y="641.3" width="5" height="13.3" rx="2.5" fill="rgb(100,115,147)" fill-opacity="0.208"/>
  <rect x="72" y="643.1" width="5" height="9.9" rx="2.5" fill="rgb(102,115,146)" fill-opacity="0.212"/>
  <rect x="81" y="642.3" width="5" height="11.5" rx="2.5" fill="rgb(103,115,146)" fill-opacity="0.216"/>
  <rect x="90" y="640.4" width="5" height="15.2" rx="2.5" fill="rgb(105,115,145)" fill-opacity="0.22"/>
  <rect x="99" y="640.1" width="5" height="15.9" rx="2.5" fill="rgb(106,115,145)" fill-opacity="0.224"/>
  <rect x="108" y="641.9" width="5" height="12.3" rx="2.5" fill="rgb(108,115,144)" fill-opacity="0.228"/>
  <rect x="117" y="644.1" width="5" height="7.8" rx="2.5" fill="rgb(109,115,144)" fill-opacity="0.232"/>
  <rect x="126" y="645.0" width="5" height="6.0" rx="2.5" fill="rgb(111,114,143)" fill-opacity="0.237"/>
  <rect x="135" y="645.1" width="5" height="5.9" rx="2.5" fill="rgb(112,114,143)" fill-opacity="0.241"/>
  <rect x="144" y="645.9" width="5" height="4.3" rx="2.5" fill="rgb(114,114,142)" fill-opacity="0.245"/>
  <rect x="153" y="640.8" width="5" height="14.4" rx="2.5" fill="rgb(116,114,142)" fill-opacity="0.25"/>
  <rect x="162" y="634.4" width="5" height="27.2" rx="2.5" fill="rgb(118,114,141)" fill-opacity="0.255"/>
  <rect x="171" y="630.9" width="5" height="34.2" rx="2.5" fill="rgb(119,114,141)" fill-opacity="0.26"/>
  <rect x="180" y="633.5" width="5" height="29.1" rx="2.5" fill="rgb(121,114,140)" fill-opacity="0.266"/>
  <rect x="189" y="640.9" width="5" height="14.2" rx="2.5" fill="rgb(124,114,139)" fill-opacity="0.271"/>
  <rect x="198" y="643.4" width="5" height="9.3" rx="2.5" fill="rgb(126,114,138)" fill-opacity="0.278"/>
  <rect x="207" y="639.2" width="5" height="17.6" rx="2.5" fill="rgb(128,114,138)" fill-opacity="0.285"/>
  <rect x="216" y="639.6" width="5" height="16.8" rx="2.5" fill="rgb(131,114,137)" fill-opacity="0.292"/>
  <rect x="225" y="642.0" width="5" height="12.0" rx="2.5" fill="rgb(134,114,136)" fill-opacity="0.3"/>
  <rect x="234" y="643.4" width="5" height="9.2" rx="2.5" fill="rgb(137,114,135)" fill-opacity="0.309"/>
  <rect x="243" y="643.0" width="5" height="10.1" rx="2.5" fill="rgb(141,114,134)" fill-opacity="0.319"/>
  <rect x="252" y="642.1" width="5" height="11.9" rx="2.5" fill="rgb(145,114,132)" fill-opacity="0.33"/>
  <rect x="261" y="642.2" width="5" height="11.6" rx="2.5" fill="rgb(150,114,131)" fill-opacity="0.342"/>
  <rect x="270" y="643.1" width="5" height="9.7" rx="2.5" fill="rgb(154,113,129)" fill-opacity="0.355"/>
  <rect x="279" y="644.2" width="5" height="7.5" rx="2.5" fill="rgb(160,113,128)" fill-opacity="0.37"/>
  <rect x="288" y="644.6" width="5" height="6.8" rx="2.5" fill="rgb(165,113,126)" fill-opacity="0.385"/>
  <rect x="297" y="644.5" width="5" height="6.9" rx="2.5" fill="rgb(171,113,124)" fill-opacity="0.402"/>
  <rect x="306" y="644.8" width="5" height="6.4" rx="2.5" fill="rgb(178,113,122)" fill-opacity="0.42"/>
  <rect x="315" y="641.2" width="5" height="13.7" rx="2.5" fill="rgb(185,113,119)" fill-opacity="0.439"/>
  <rect x="324" y="636.2" width="5" height="23.6" rx="2.5" fill="rgb(192,113,117)" fill-opacity="0.459"/>
  <rect x="333" y="633.1" width="5" height="29.9" rx="2.5" fill="rgb(200,112,115)" fill-opacity="0.48"/>
  <rect x="342" y="634.5" width="5" height="27.0" rx="2.5" fill="rgb(208,112,112)" fill-opacity="0.502"/>
  <rect x="351" y="640.4" width="5" height="15.2" rx="2.5" fill="rgb(216,112,109)" fill-opacity="0.524"/>
  <rect x="360" y="641.6" width="5" height="12.8" rx="2.5" fill="rgb(224,112,107)" fill-opacity="0.546"/>
  <rect x="369" y="637.2" width="5" height="21.5" rx="2.5" fill="rgb(233,112,104)" fill-opacity="0.569"/>
  <rect x="378" y="637.2" width="5" height="21.6" rx="2.5" fill="rgb(241,111,102)" fill-opacity="0.591"/>
  <rect x="387" y="639.4" width="5" height="17.2" rx="2.5" fill="rgb(248,111,99)" fill-opacity="0.612"/>
  <rect x="396" y="640.7" width="5" height="14.7" rx="2.5" fill="rgb(255,111,97)" fill-opacity="0.63"/>
  <rect x="405" y="639.6" width="5" height="16.9" rx="2.5" fill="rgb(255,111,97)" fill-opacity="0.63"/>
  <rect x="414" y="637.6" width="5" height="20.7" rx="2.5" fill="rgb(255,111,97)" fill-opacity="0.63"/>
  <rect x="423" y="637.3" width="5" height="21.3" rx="2.5" fill="rgb(255,111,97)" fill-opacity="0.63"/>
  <rect x="432" y="639.1" width="5" height="17.7" rx="2.5" fill="rgb(255,111,97)" fill-opacity="0.63"/>
  <rect x="441" y="641.2" width="5" height="13.5" rx="2.5" fill="rgb(255,111,97)" fill-opacity="0.63"/>
  <rect x="450" y="642.0" width="5" height="12.1" rx="2.5" fill="rgb(255,111,97)" fill-opacity="0.63"/>
  <rect x="459" y="642.0" width="5" height="11.9" rx="2.5" fill="rgb(255,111,97)" fill-opacity="0.63"/>
  <rect x="468" y="642.4" width="5" height="11.1" rx="2.5" fill="rgb(255,111,97)" fill-opacity="0.63"/>
  <rect x="477" y="636.5" width="5" height="22.9" rx="2.5" fill="rgb(255,111,97)" fill-opacity="0.63"/>
  <rect x="486" y="629.3" width="5" height="37.4" rx="2.5" fill="rgb(255,111,97)" fill-opacity="0.63"/>
  <rect x="495" y="625.6" width="5" height="44.7" rx="2.5" fill="rgb(255,111,97)" fill-opacity="0.63"/>
  <rect x="504" y="629.0" width="5" height="37.9" rx="2.5" fill="rgb(255,111,97)" fill-opacity="0.63"/>
  <rect x="513" y="638.1" width="5" height="19.7" rx="2.5" fill="rgb(255,111,97)" fill-opacity="0.63"/>
  <rect x="522" y="639.4" width="5" height="17.2" rx="2.5" fill="rgb(255,111,97)" fill-opacity="0.63"/>
  <rect x="531" y="634.7" width="5" height="26.6" rx="2.5" fill="rgb(255,111,97)" fill-opacity="0.63"/>
  <rect x="540" y="635.6" width="5" height="24.9" rx="2.5" fill="rgb(255,111,97)" fill-opacity="0.63"/>
  <rect x="549" y="638.7" width="5" height="18.6" rx="2.5" fill="rgb(251,111,98)" fill-opacity="0.619"/>
  <rect x="558" y="640.4" width="5" height="15.3" rx="2.5" fill="rgb(244,111,100)" fill-opacity="0.601"/>
  <rect x="567" y="639.6" width="5" height="16.9" rx="2.5" fill="rgb(238,111,103)" fill-opacity="0.583"/>
  <rect x="576" y="638.2" width="5" height="19.6" rx="2.5" fill="rgb(231,112,105)" fill-opacity="0.565"/>
  <rect x="585" y="638.5" width="5" height="19.1" rx="2.5" fill="rgb(225,112,107)" fill-opacity="0.547"/>
  <rect x="594" y="640.5" width="5" height="15.1" rx="2.5" fill="rgb(218,112,109)" fill-opacity="0.53"/>
  <rect x="603" y="642.5" width="5" height="11.0" rx="2.5" fill="rgb(212,112,111)" fill-opacity="0.513"/>
  <rect x="612" y="643.2" width="5" height="9.6" rx="2.5" fill="rgb(207,112,113)" fill-opacity="0.498"/>
  <rect x="621" y="643.4" width="5" height="9.2" rx="2.5" fill="rgb(201,112,114)" fill-opacity="0.484"/>
  <rect x="630" y="643.7" width="5" height="8.6" rx="2.5" fill="rgb(196,112,116)" fill-opacity="0.47"/>
  <rect x="639" y="639.3" width="5" height="17.3" rx="2.5" fill="rgb(192,113,117)" fill-opacity="0.458"/>
  <rect x="648" y="634.3" width="5" height="27.4" rx="2.5" fill="rgb(188,113,119)" fill-opacity="0.447"/>
  <rect x="657" y="632.0" width="5" height="31.9" rx="2.5" fill="rgb(184,113,120)" fill-opacity="0.438"/>
  <rect x="666" y="634.8" width="5" height="26.4" rx="2.5" fill="rgb(181,113,121)" fill-opacity="0.429"/>
  <rect x="675" y="641.4" width="5" height="13.2" rx="2.5" fill="rgb(179,113,122)" fill-opacity="0.422"/>
  <rect x="684" y="641.7" width="5" height="12.7" rx="2.5" fill="rgb(176,113,122)" fill-opacity="0.415"/>
  <rect x="693" y="638.5" width="5" height="19.0" rx="2.5" fill="rgb(174,113,123)" fill-opacity="0.409"/>
  <rect x="702" y="639.2" width="5" height="17.7" rx="2.5" fill="rgb(172,113,124)" fill-opacity="0.405"/>
  <rect x="711" y="641.3" width="5" height="13.3" rx="2.5" fill="rgb(171,113,124)" fill-opacity="0.401"/>
  <rect x="720" y="642.4" width="5" height="11.2" rx="2.5" fill="rgb(170,113,124)" fill-opacity="0.397"/>
  <rect x="729" y="641.6" width="5" height="12.8" rx="2.5" fill="rgb(169,113,125)" fill-opacity="0.395"/>
  <rect x="738" y="640.5" width="5" height="15.0" rx="2.5" fill="rgb(168,113,125)" fill-opacity="0.393"/>
  <rect x="747" y="640.6" width="5" height="14.8" rx="2.5" fill="rgb(167,113,125)" fill-opacity="0.391"/>
  <rect x="756" y="642.1" width="5" height="11.8" rx="2.5" fill="rgb(167,113,125)" fill-opacity="0.39"/>
  <rect x="765" y="643.6" width="5" height="8.9" rx="2.5" fill="rgb(167,113,125)" fill-opacity="0.389"/>
  <rect x="774" y="643.9" width="5" height="8.2" rx="2.5" fill="rgb(167,113,125)" fill-opacity="0.389"/>
  <rect x="783" y="643.9" width="5" height="8.1" rx="2.5" fill="rgb(167,113,125)" fill-opacity="0.389"/>
  <rect x="792" y="643.8" width="5" height="8.4" rx="2.5" fill="rgb(167,113,125)" fill-opacity="0.389"/>
  <rect x="801" y="637.6" width="5" height="20.8" rx="2.5" fill="rgb(167,113,125)" fill-opacity="0.391"/>
  <rect x="810" y="629.3" width="5" height="37.4" rx="2.5" fill="rgb(168,113,125)" fill-opacity="0.392"/>
  <rect x="819" y="624.4" width="5" height="47.2" rx="2.5" fill="rgb(169,113,125)" fill-opacity="0.395"/>
  <rect x="828" y="627.8" width="5" height="40.5" rx="2.5" fill="rgb(170,113,124)" fill-opacity="0.398"/>
  <rect x="837" y="639.1" width="5" height="17.9" rx="2.5" fill="rgb(171,113,124)" fill-opacity="0.402"/>
  <rect x="846" y="637.8" width="5" height="20.3" rx="2.5" fill="rgb(173,113,123)" fill-opacity="0.407"/>
  <rect x="855" y="630.6" width="5" height="34.7" rx="2.5" fill="rgb(175,113,123)" fill-opacity="0.413"/>
  <rect x="864" y="631.5" width="5" height="33.1" rx="2.5" fill="rgb(178,113,122)" fill-opacity="0.42"/>
  <rect x="873" y="636.0" width="5" height="24.0" rx="2.5" fill="rgb(181,113,121)" fill-opacity="0.428"/>
  <rect x="882" y="637.9" width="5" height="20.2" rx="2.5" fill="rgb(184,113,120)" fill-opacity="0.437"/>
  <rect x="891" y="635.0" width="5" height="25.9" rx="2.5" fill="rgb(188,113,119)" fill-opacity="0.447"/>
  <rect x="900" y="631.1" width="5" height="33.9" rx="2.5" fill="rgb(192,113,117)" fill-opacity="0.459"/>
  <rect x="909" y="630.9" width="5" height="34.1" rx="2.5" fill="rgb(197,112,116)" fill-opacity="0.471"/>
  <rect x="918" y="635.2" width="5" height="25.5" rx="2.5" fill="rgb(202,112,114)" fill-opacity="0.485"/>
  <rect x="927" y="639.7" width="5" height="16.6" rx="2.5" fill="rgb(207,112,112)" fill-opacity="0.499"/>
  <rect x="936" y="640.8" width="5" height="14.3" rx="2.5" fill="rgb(213,112,111)" fill-opacity="0.514"/>
  <rect x="945" y="641.3" width="5" height="13.4" rx="2.5" fill="rgb(218,112,109)" fill-opacity="0.529"/>
  <rect x="954" y="640.3" width="5" height="15.3" rx="2.5" fill="rgb(224,112,107)" fill-opacity="0.544"/>
  <rect x="963" y="623.6" width="5" height="48.9" rx="2.5" fill="rgb(229,112,105)" fill-opacity="0.559"/>
  <rect x="972" y="603.8" width="5" height="88.4" rx="2.5" fill="rgb(234,112,104)" fill-opacity="0.573"/>
  <rect x="981" y="594.9" width="5" height="106.1" rx="2.5" fill="rgb(239,111,102)" fill-opacity="0.586"/>
  <rect x="990" y="606.2" width="5" height="83.7" rx="2.5" fill="rgb(243,111,101)" fill-opacity="0.597"/>
  <rect x="999" y="632.9" width="5" height="30.3" rx="2.5" fill="rgb(246,111,100)" fill-opacity="0.606"/>
  <rect x="1008" y="628.7" width="5" height="38.7" rx="2.5" fill="rgb(249,111,99)" fill-opacity="0.613"/>
  <rect x="1017" y="616.7" width="5" height="62.7" rx="2.5" fill="rgb(251,111,98)" fill-opacity="0.618"/>
  <rect x="1026" y="620.4" width="5" height="55.1" rx="2.5" fill="rgb(252,111,98)" fill-opacity="0.621"/>
  <rect x="1035" y="629.6" width="5" height="36.7" rx="2.5" fill="rgb(251,111,98)" fill-opacity="0.62"/>
  <rect x="1044" y="633.3" width="5" height="29.3" rx="2.5" fill="rgb(250,111,99)" fill-opacity="0.617"/>
  <rect x="1053" y="629.8" width="5" height="36.3" rx="2.5" fill="rgb(248,111,99)" fill-opacity="0.61"/>
  <rect x="1062" y="625.9" width="5" height="44.3" rx="2.5" fill="rgb(245,111,100)" fill-opacity="0.602"/>
  <rect x="1071" y="627.6" width="5" height="40.8" rx="2.5" fill="rgb(240,111,102)" fill-opacity="0.59"/>
  <rect x="1080" y="634.2" width="5" height="27.7" rx="2.5" fill="rgb(235,111,103)" fill-opacity="0.577"/>
  <rect x="1089" y="639.7" width="5" height="16.6" rx="2.5" fill="rgb(230,112,105)" fill-opacity="0.561"/>
  <rect x="1098" y="641.2" width="5" height="13.5" rx="2.5" fill="rgb(223,112,107)" fill-opacity="0.544"/>
  <rect x="1107" y="642.2" width="5" height="11.6" rx="2.5" fill="rgb(217,112,109)" fill-opacity="0.525"/>
  <rect x="1116" y="641.3" width="5" height="13.4" rx="2.5" fill="rgb(209,112,112)" fill-opacity="0.506"/>
  <rect x="1125" y="629.6" width="5" height="36.7" rx="2.5" fill="rgb(202,112,114)" fill-opacity="0.486"/>
  <rect x="1134" y="618.6" width="5" height="58.8" rx="2.5" fill="rgb(195,112,116)" fill-opacity="0.466"/>
  <rect x="1143" y="616.5" width="5" height="63.1" rx="2.5" fill="rgb(187,113,119)" fill-opacity="0.446"/>
  <rect x="1152" y="625.7" width="5" height="44.7" rx="2.5" fill="rgb(180,113,121)" fill-opacity="0.426"/>
  <rect x="1161" y="640.6" width="5" height="14.7" rx="2.5" fill="rgb(173,113,123)" fill-opacity="0.408"/>
  <rect x="1170" y="638.2" width="5" height="19.5" rx="2.5" fill="rgb(167,113,125)" fill-opacity="0.39"/>
  <rect x="1179" y="634.4" width="5" height="27.2" rx="2.5" fill="rgb(161,113,127)" fill-opacity="0.373"/>
  <rect x="1188" y="637.0" width="5" height="22.0" rx="2.5" fill="rgb(155,113,129)" fill-opacity="0.357"/>
  <rect x="1197" y="640.9" width="5" height="14.2" rx="2.5" fill="rgb(150,114,131)" fill-opacity="0.343"/>
  <rect x="1206" y="642.4" width="5" height="11.2" rx="2.5" fill="rgb(145,114,132)" fill-opacity="0.329"/>
  <rect x="1215" y="641.6" width="5" height="12.8" rx="2.5" fill="rgb(140,114,134)" fill-opacity="0.317"/>
  <rect x="1224" y="640.9" width="5" height="14.2" rx="2.5" fill="rgb(136,114,135)" fill-opacity="0.306"/>
  <rect x="1233" y="641.8" width="5" height="12.3" rx="2.5" fill="rgb(133,114,136)" fill-opacity="0.296"/>
  <rect x="1242" y="643.7" width="5" height="8.5" rx="2.5" fill="rgb(129,114,137)" fill-opacity="0.287"/>
  <rect x="1251" y="645.1" width="5" height="5.8" rx="2.5" fill="rgb(126,114,138)" fill-opacity="0.279"/>
  <rect x="1260" y="645.5" width="5" height="5.0" rx="2.5" fill="rgb(124,114,139)" fill-opacity="0.272"/>
  <rect x="1269" y="645.8" width="5" height="4.5" rx="2.5" fill="rgb(121,114,140)" fill-opacity="0.265"/>
  <rect x="1278" y="645.5" width="5" height="5.0" rx="2.5" fill="rgb(119,114,141)" fill-opacity="0.259"/>
  <rect x="1287" y="643.2" width="5" height="9.7" rx="2.5" fill="rgb(117,114,141)" fill-opacity="0.253"/>
  <rect x="1296" y="640.8" width="5" height="14.4" rx="2.5" fill="rgb(115,114,142)" fill-opacity="0.248"/>
  <rect x="1305" y="640.2" width="5" height="15.6" rx="2.5" fill="rgb(113,114,143)" fill-opacity="0.242"/>
  <rect x="1314" y="642.1" width="5" height="11.8" rx="2.5" fill="rgb(111,114,143)" fill-opacity="0.238"/>
  <rect x="1323" y="645.5" width="5" height="5.0" rx="2.5" fill="rgb(109,115,144)" fill-opacity="0.233"/>
  <rect x="1332" y="644.6" width="5" height="6.9" rx="2.5" fill="rgb(108,115,144)" fill-opacity="0.229"/>
  <rect x="1341" y="643.5" width="5" height="9.0" rx="2.5" fill="rgb(106,115,145)" fill-opacity="0.224"/>
  <rect x="1350" y="644.1" width="5" height="7.7" rx="2.5" fill="rgb(105,115,145)" fill-opacity="0.22"/>
  <rect x="1359" y="645.2" width="5" height="5.7" rx="2.5" fill="rgb(103,115,146)" fill-opacity="0.216"/>
  <rect x="1368" y="645.5" width="5" height="5.0" rx="2.5" fill="rgb(102,115,146)" fill-opacity="0.212"/>
  <rect x="1377" y="645.2" width="5" height="5.7" rx="2.5" fill="rgb(100,115,147)" fill-opacity="0.208"/>
  <rect x="1386" y="644.8" width="5" height="6.4" rx="2.5" fill="rgb(99,115,147)" fill-opacity="0.204"/>
  <rect x="1395" y="645.1" width="5" height="5.8" rx="2.5" fill="rgb(97,115,148)" fill-opacity="0.2"/>
  <rect x="1404" y="645.8" width="5" height="4.4" rx="2.5" fill="rgb(96,115,148)" fill-opacity="0.196"/>
  <rect x="1413" y="646.4" width="5" height="3.3" rx="2.5" fill="rgb(94,115,149)" fill-opacity="0.192"/>
  <rect x="1422" y="646.5" width="5" height="3.0" rx="2.5" fill="rgb(93,115,149)" fill-opacity="0.188"/>
  <rect x="1431" y="646.7" width="5" height="2.7" rx="2.5" fill="rgb(91,115,150)" fill-opacity="0.184"/>
  <rect x="1440" y="646.4" width="5" height="3.1" rx="2.5" fill="rgb(90,115,150)" fill-opacity="0.18"/>
  <rect width="1440" height="720" filter="url(#v-grain)" opacity="0.035" style="mix-blend-mode:multiply"/>
</svg>
