<svg viewBox="0 0 1440 720" xmlns="http://www.w3.org/2000/svg" preserveAspectRatio="xMidYMid slice">
  <defs>
    <linearGradient id="m13-base" x1="0" y1="0" x2="0.4" y2="1">
      <stop offset="0" stop-color="#1E4373"/>
      <stop offset="0.6" stop-color="#0E2A4E"/>
      <stop offset="1" stop-color="#081A33"/>
    </linearGradient>
    <linearGradient id="m13-w1" x1="0" y1="0" x2="0" y2="1">
      <stop offset="0" stop-color="#FF8A6B" stop-opacity="0.55"/>
      <stop offset="1" stop-color="#FF8A6B" stop-opacity="0.1"/>
    </linearGradient>
    <linearGradient id="m13-w2" x1="0" y1="0" x2="0" y2="1">
      <stop offset="0" stop-color="#4A78B8" stop-opacity="0.5"/>
      <stop offset="1" stop-color="#4A78B8" stop-opacity="0.08"/>
    </linearGradient>
    <linearGradient id="m13-w3" x1="0" y1="0" x2="0" y2="1">
      <stop offset="0" stop-color="#2E5B9E" stop-opacity="0.45"/>
      <stop offset="1" stop-color="#2E5B9E" stop-opacity="0.05"/>
    </linearGradient>
    <filter id="m13-grain">
      <feTurbulence type="fractalNoise" baseFrequency="0.85" numOctaves="2" stitchTiles="stitch"/>
      <feColorMatrix type="saturate" values="0"/>
    </filter>
  </defs>
  <rect width="1440" height="720" fill="url(#m13-base)"/>
  <path d="M -60 560 C 240 420, 520 600, 800 500 C 1080 400, 1280 520, 1500 440 V 780 H -60 Z" fill="url(#m13-w3)"/>
  <path d="M -60 600 C 260 480, 540 660, 820 560 C 1100 460, 1300 580, 1500 500 V 780 H -60 Z" fill="url(#m13-w2)"/>
  <path d="M -60 660 C 280 540, 560 700, 840 620 C 1120 540, 1320 640, 1500 570 V 780 H -60 Z" fill="url(#m13-w1)"/>
  <path d="M -60 200 C 300 320, 640 140, 980 240 C 1220 310, 1380 240, 1500 280" stroke="#FFB199" stroke-opacity="0.35" stroke-width="1.5" fill="none"/>
  <rect width="1440" height="720" filter="url(#m13-grain)" opacity="0.09" style="mix-blend-mode:overlay"/>
</svg>
